<svg width="1124" height="239" viewBox="0 0 1124 239" fill="none" xmlns="http://www.w3.org/2000/svg">
<g filter="url(#filter0_d_2072_197)">
<path fill-rule="evenodd" clip-rule="evenodd" d="M218.681 1.51961C215.401 2.94361 204.441 12.0916 188.01 27.1186C183.585 31.1656 171.244 42.1266 160.587 51.4766C149.93 60.8266 129.216 79.0516 114.558 91.9766C99.8986 104.902 84.8806 118.112 81.1846 121.332C71.5766 129.702 70.9576 130.844 73.0486 136.318C75.3846 142.436 79.7386 146.977 83.2666 146.977C84.8206 146.977 87.8836 145.761 90.0736 144.275C93.4036 142.015 141.91 100.745 164.556 80.9036C175.398 71.4046 196.691 52.8276 203.73 46.7266C207.378 43.5636 210.688 40.9766 211.085 40.9766C211.481 40.9766 211.531 42.3516 211.195 44.0316C210.859 45.7116 207.407 72.3736 203.523 103.282C199.639 134.189 195.133 169.377 193.509 181.477C190.153 206.493 189.867 213.145 192.055 215.334C194.05 217.328 203.783 218.469 209.38 217.363C216.774 215.903 217.182 214.805 221.044 185.933C222.916 171.932 225.124 154.627 225.95 147.477C226.776 140.327 230.625 108.571 234.504 76.9086C238.382 45.2456 241.556 16.8446 241.556 13.7936C241.556 9.61761 241.02 7.56561 239.388 5.49061C235.246 0.223608 225.827 -1.58239 218.681 1.51961ZM33.5566 29.0996C29.3436 30.7796 26.7546 33.9686 25.6536 38.8306C23.2316 49.5296 3.32657 214.942 4.01757 218.627C4.89357 223.297 9.77257 228.126 15.2796 229.776C20.1356 231.231 33.6996 231.342 38.6466 229.968C40.6216 229.42 45.1556 227.06 48.7216 224.724C55.1756 220.496 107.788 180.814 139.923 155.935C149.199 148.753 156.906 143.012 157.049 143.177C157.192 143.342 156.478 150.452 155.462 158.977C150.562 200.086 150.267 198.222 161.891 199.585C168.615 200.374 175.35 198.58 176.567 195.676C178.169 191.854 187.79 112.039 187.095 108.334C185.606 100.394 174.718 98.7006 165.769 105.018C145.529 119.305 60.8236 183.211 38.8266 200.789C35.8586 203.161 33.0986 204.961 32.6926 204.789C32.2866 204.618 33.0066 195.477 34.2906 184.477C36.7846 163.128 46.3956 82.3106 47.2816 75.2436C47.8026 71.0836 47.9506 71.3346 55.8016 89.7436C60.1966 100.047 64.5666 109.293 65.5136 110.289C67.6646 112.553 72.6966 112.77 75.8056 110.733C80.6906 107.532 89.5556 98.7096 89.5556 97.0486C89.5556 96.0986 88.4686 92.6566 87.1406 89.3986C83.8406 81.3076 62.9446 37.2186 61.0086 34.2646C57.9106 29.5366 53.7906 27.9786 44.5556 28.0436C39.8806 28.0766 34.9306 28.5516 33.5566 29.0996ZM317.785 77.6456C314.759 78.8636 313.445 85.6616 308.147 127.53C305.088 151.701 302.12 174.82 301.55 178.906C300.977 183.019 300.896 186.717 301.37 187.191C301.84 187.661 307.345 187.918 313.602 187.761L324.98 187.477L329.15 152.833C331.443 133.778 333.485 117.693 333.687 117.087C333.89 116.482 339.456 128.188 346.056 143.102C353.894 160.813 358.815 170.723 360.246 171.673C363.733 173.99 372.988 173.791 376.293 171.327C378.99 169.316 394.001 149.372 409.167 127.647C413.326 121.69 416.837 116.965 416.97 117.147C417.103 117.328 415.277 132.777 412.913 151.477C410.548 170.177 408.817 186.054 409.065 186.759C409.406 187.725 412.411 187.971 421.274 187.759L433.031 187.477L439.232 138.977C442.643 112.302 445.461 87.9046 445.495 84.7616C445.573 77.4096 444.765 76.9766 430.95 76.9766H420.213L416.135 81.2766C413.891 83.6406 407.972 91.4036 402.982 98.5266C397.991 105.649 389.103 118.171 383.232 126.353C377.36 134.535 372.556 141.622 372.556 142.103C372.556 143.91 370.664 142.888 370.009 140.727C369.634 139.489 363.959 125.877 357.398 110.477C342.658 75.8816 343.553 76.9456 329.29 77.0556C323.661 77.0986 318.484 77.3646 317.785 77.6456ZM559.905 79.7416C559.018 80.3086 545.556 180.906 545.556 186.97C545.556 187.761 555.293 187.99 579.806 187.776C613.105 187.485 614.195 187.413 619.056 185.178C629.919 180.182 635.537 171.063 638.059 154.333C641.676 130.333 638.19 120.091 624.607 114.816C619.786 112.943 616.46 112.6 599.306 112.202C581.88 111.797 579.558 111.551 579.572 110.11C579.58 109.212 580.474 102.236 581.557 94.6076C582.641 86.9796 583.282 80.3426 582.983 79.8576C582.328 78.7986 561.546 78.6946 559.905 79.7416ZM717.58 80.5796C709.751 82.6836 704.281 86.2216 700.145 91.8556C695.186 98.6106 693.437 104.1 693.256 113.477C692.906 131.491 698.769 135.075 739.056 141.473C762.747 145.235 764.556 146.207 764.556 155.177C764.556 160.702 761.762 165.926 757.443 168.477C754.27 170.351 751.758 170.509 717.611 170.977L681.166 171.477L679.811 178.875C679.065 182.944 678.689 186.881 678.974 187.625C679.726 189.583 755.722 189.577 763.056 187.618C780.61 182.929 788.556 170.971 788.556 149.244C788.556 140.521 786.195 134.281 781.68 131.065C776.882 127.649 766.528 124.87 745.925 121.467C725.837 118.15 720.356 116.503 719.177 113.432C717.789 109.814 718.622 105.935 721.473 102.743L724.389 99.4766L757.723 98.9766L791.056 98.4766L792.08 90.4766C793.72 77.6656 797.628 78.9666 757.733 79.0426C730.519 79.0936 721.877 79.4246 717.58 80.5796ZM658.155 82.7266C657.479 86.0426 655.574 98.1736 655.564 99.2266C655.554 100.208 680.296 100.207 680.902 99.2246C681.158 98.8116 681.693 94.3116 682.09 89.2246L682.814 79.9766H670.764H658.715L658.155 82.7266ZM811.146 91.8316C810.833 92.3376 810.096 96.2896 809.508 100.614C807.66 114.206 808.644 112.977 799.604 112.977C790.574 112.977 791.084 112.432 790.001 123.227L789.323 129.977H796.88C801.037 129.977 804.614 130.315 804.829 130.727C805.044 131.139 804.201 139.352 802.956 148.977C799.219 177.871 799.87 184.361 806.776 187.027C808.867 187.834 817.39 188.454 830.292 188.738L850.528 189.182L851.41 186.829C851.895 185.536 852.612 181.44 853.003 177.727L853.715 170.977H840.258C829.376 170.977 826.557 170.683 825.526 169.441C824.486 168.188 824.677 164.406 826.56 148.941L828.87 129.977H844.633H860.397L860.936 127.227C861.233 125.715 861.77 121.889 862.131 118.727L862.786 112.977H847.622H832.457L833.239 106.727C833.669 103.29 834.029 98.4516 834.039 95.9766L834.056 91.4766L822.885 91.1946C816.741 91.0396 811.458 91.3266 811.146 91.8316ZM467.156 115.411C460.094 118.361 455.388 122.679 452.463 128.891C449.159 135.908 446.545 150.217 446.395 162.106C446.279 171.281 446.571 173.377 448.53 177.422C451.123 182.78 455.839 186.311 462.656 188C465.702 188.754 475.327 189.005 491.156 188.742C517.854 188.299 521.052 187.668 528.379 181.396C533.819 176.74 537.187 169.205 539.139 157.326C541.561 142.59 541.453 130.456 538.856 125.477C536.216 120.418 534.208 118.618 528.019 115.765C523.327 113.602 521.692 113.462 498.056 113.211C473.452 112.95 472.963 112.984 467.156 115.411ZM652.052 115.227C650.967 119.725 642.759 187.496 643.21 188.226C643.465 188.639 648.792 188.977 655.048 188.977C668.274 188.977 666.765 190.599 669.003 173.977C672.344 149.155 676.556 116.003 676.556 114.529C676.556 113.213 674.738 112.977 664.575 112.977C652.978 112.977 652.577 113.049 652.052 115.227ZM885.761 114.831C878.526 117.385 873.763 121.509 869.925 128.545C865.455 136.737 863.111 148.704 863.08 163.477C863.057 174.829 863.201 175.7 865.743 179.607C867.47 182.261 870.15 184.585 873.243 186.107C877.94 188.42 878.697 188.477 904.577 188.477H931.098L937.764 185.196C948.969 179.679 953.135 171.539 955.888 149.785C958.37 130.166 955.491 121.55 944.679 116.241C939.07 113.487 938.996 113.48 915.056 113.222C893.754 112.992 890.461 113.173 885.761 114.831ZM980.804 114.846C968.898 118.983 968.437 120.314 962.559 167.576C959.687 190.657 958.451 188.091 972.283 187.759L984.01 187.477L987.09 162.346C989.29 144.39 990.659 136.468 991.885 134.596C992.829 133.156 993.703 131.907 993.828 131.822C993.953 131.737 1000.79 131.399 1009.02 131.072L1023.98 130.477L1024.69 126.977C1025.09 125.052 1025.56 121.227 1025.73 118.477L1026.06 113.477L1006.06 113.249C988.886 113.054 985.313 113.28 980.804 114.846ZM1051.33 114.418C1036.07 118.742 1028.28 129.727 1025.44 150.903C1022.52 172.695 1027.21 183.125 1041.9 187.486C1045.87 188.666 1053.33 188.977 1077.63 188.977H1108.34L1108.96 186.502C1109.3 185.141 1109.86 181.336 1110.21 178.046L1110.83 172.065L1081.61 171.771L1052.38 171.477L1049.97 168.671C1048.62 167.106 1047.56 164.588 1047.56 162.976V160.087L1077.38 159.782L1107.21 159.477L1111.29 156.771C1116.73 153.168 1119.56 145.905 1119.56 135.505C1119.56 124.406 1117.25 120.039 1109.06 115.63C1105.31 113.612 1103.52 113.465 1080.56 113.278C1062.59 113.132 1054.8 113.436 1051.33 114.418ZM511.776 132.603C515.422 134.472 516.566 136.906 516.503 142.661C516.42 150.227 514.117 162.472 512.239 165.339C508.738 170.681 506.256 171.454 491.603 171.762C476.884 172.072 474.792 171.555 471.203 166.721C469.239 164.076 469.206 163.515 470.4 152.779C472.288 135.798 474.622 132.385 485.337 130.93C492.978 129.892 508.391 130.868 511.776 132.603ZM609.099 131.994C613.233 133.565 614.883 138.991 614.309 149.124C613.734 159.27 611.555 164.559 606.832 167.276C604.173 168.806 600.796 169.211 587.582 169.587C572.706 170.011 571.555 169.916 571.537 168.26C571.513 165.944 575.651 132.909 576.195 131.074C576.539 129.913 579.178 129.788 591.578 130.347C599.811 130.719 607.695 131.46 609.099 131.994ZM927.008 132.392C928.871 133.171 930.881 134.716 931.476 135.827C932.938 138.56 932.78 146.83 931.082 156.359C928.712 169.653 924.917 171.972 905.556 171.957C893.133 171.947 890.536 171.21 887.233 166.762C885.32 164.184 885.277 163.501 886.386 153.34C887.716 141.157 889.595 136.476 894.454 133.24C897.544 131.182 899.02 130.977 910.736 130.977C919.584 130.977 924.681 131.42 927.008 132.392ZM1094.62 132.012C1097.32 133.456 1097.22 139.066 1094.45 141.572C1092.55 143.297 1090.31 143.509 1070.82 143.815L1049.29 144.152L1049.99 141.315C1051.07 136.953 1053.39 133.953 1056.88 132.436C1060.76 130.747 1091.61 130.401 1094.62 132.012Z" fill="url(#paint0_linear_2072_197)"/>
</g>
<defs>
<filter id="filter0_d_2072_197" x="0" y="0" width="1123.56" height="238.936" filterUnits="userSpaceOnUse" color-interpolation-filters="sRGB">
<feFlood flood-opacity="0" result="BackgroundImageFix"/>
<feColorMatrix in="SourceAlpha" type="matrix" values="0 0 0 0 0 0 0 0 0 0 0 0 0 0 0 0 0 0 127 0" result="hardAlpha"/>
<feOffset dy="4"/>
<feGaussianBlur stdDeviation="2"/>
<feComposite in2="hardAlpha" operator="out"/>
<feColorMatrix type="matrix" values="0 0 0 0 0 0 0 0 0 0 0 0 0 0 0 0 0 0 0.25 0"/>
<feBlend mode="normal" in2="BackgroundImageFix" result="effect1_dropShadow_2072_197"/>
<feBlend mode="normal" in="SourceGraphic" in2="effect1_dropShadow_2072_197" result="shape"/>
</filter>
<linearGradient id="paint0_linear_2072_197" x1="13.7168" y1="231.311" x2="863.717" y2="68.3105" gradientUnits="userSpaceOnUse">
<stop stop-color="#51A5EA"/>
<stop offset="0.538462" stop-color="#3B82F6"/>
<stop offset="1" stop-color="#8B5CF6"/>
</linearGradient>
</defs>
</svg>
